<svg viewBox="0 0 20 20" xmlns="http://www.w3.org/2000/svg" xmlns:xlink="http://www.w3.org/1999/xlink"><style>:root&gt;svg{display:none}:root&gt;svg:target{display:block}</style><svg fill="none" viewBox="0 0 12 20" id="fb" xmlns="http://www.w3.org/2000/svg"><path d="M10.57 10.878l.495-3.555H7.27V5.052c0-1.029.308-1.73 1.9-1.73h2.03V.139A29.974 29.974 0 008.24 0C5.315 0 3.31 1.656 3.31 4.7v2.62H0v3.555h3.31V20h3.96v-9.122h3.3z" fill="#BDBDBD"/></svg><svg fill="none" viewBox="0 0 12 20" id="fb_hover" xmlns="http://www.w3.org/2000/svg"><path d="M10.57 10.878l.495-3.555H7.27V5.052c0-1.029.308-1.73 1.9-1.73h2.03V.139A29.974 29.974 0 008.24 0C5.315 0 3.31 1.656 3.31 4.7v2.62H0v3.555h3.31V20h3.96v-9.122h3.3z" fill="#000"/></svg><svg fill="none" viewBox="0 0 12 20" id="ok" xmlns="http://www.w3.org/2000/svg"><path d="M0 12.207v-.371c.02-.006.017-.026.02-.04.047-.294.155-.56.354-.782.512-.575 1.267-.67 1.923-.256a6.251 6.251 0 004.42.885 5.98 5.98 0 002.193-.827c.359-.224.727-.365 1.152-.289.503.088.865.371 1.096.836.072.145.09.307.146.455v.39c-.03.022-.024.06-.03.089-.084.435-.31.767-.675 1.002a9.114 9.114 0 01-2.419 1.1l-.474.13c.013.045.046.065.068.088.631.647 1.262 1.293 1.893 1.942.3.308.61.607.896.93.734.827.33 2.185-.73 2.458-.055.014-.122.004-.166.053h-.42c-.007-.018-.024-.02-.04-.021-.34-.065-.615-.243-.857-.493-.873-.9-1.752-1.795-2.626-2.693-.048-.049-.075-.068-.134-.008-.882.906-1.767 1.809-2.647 2.717-.246.252-.528.424-.873.48-.012.002-.021.012-.03.018h-.42c-.013-.035-.044-.031-.07-.037-.837-.166-1.36-1.055-1.12-1.895.085-.289.245-.523.449-.732l2.647-2.713c.027-.027.06-.047.072-.086-.005-.006-.009-.012-.015-.014a.993.993 0 00-.082-.025 9.401 9.401 0 01-2.657-1.113c-.348-.21-.62-.479-.756-.875-.035-.1-.033-.211-.088-.303zM5.222 0h.839c.006.02.023.02.038.021.141.02.284.034.423.061a4.959 4.959 0 013.016 1.81 5.09 5.09 0 011.132 2.915 5.143 5.143 0 01-.301 2.152 5.113 5.113 0 01-1.634 2.277 4.87 4.87 0 01-2.497 1.045 4.91 4.91 0 01-3.673-1.05 5.088 5.088 0 01-1.555-2.08 5.233 5.233 0 01-.328-2.787c.08-.539.24-1.053.483-1.539A5.093 5.093 0 012.57 1.084 4.935 4.935 0 014.826.074C4.959.053 5.095.05 5.222 0zm.433 3.025c-1.1-.029-2.093.94-2.09 2.137.001 1.174.945 2.139 2.08 2.143 1.16.004 2.095-.985 2.097-2.139.004-1.168-.957-2.164-2.087-2.14z" fill="#BDBDBD"/></svg><svg fill="none" viewBox="0 0 12 20" id="ok_hover" xmlns="http://www.w3.org/2000/svg"><path d="M0 12.207v-.371c.02-.006.017-.026.02-.04.047-.294.155-.56.354-.782.512-.575 1.267-.67 1.923-.256a6.251 6.251 0 004.42.885 5.98 5.98 0 002.193-.827c.359-.224.727-.365 1.152-.289.503.088.865.371 1.096.836.072.145.09.307.146.455v.39c-.03.022-.024.06-.03.089-.084.435-.31.767-.675 1.002a9.114 9.114 0 01-2.419 1.1l-.474.13c.013.045.046.065.068.088.631.647 1.262 1.293 1.893 1.942.3.308.61.607.896.93.734.827.33 2.185-.73 2.458-.055.014-.122.004-.166.053h-.42c-.007-.018-.024-.02-.04-.021-.34-.065-.615-.243-.857-.493-.873-.9-1.752-1.795-2.626-2.693-.048-.049-.075-.068-.134-.008-.882.906-1.767 1.809-2.647 2.717-.246.252-.528.424-.873.48-.012.002-.021.012-.03.018h-.42c-.013-.035-.044-.031-.07-.037-.837-.166-1.36-1.055-1.12-1.895.085-.289.245-.523.449-.732l2.647-2.713c.027-.027.06-.047.072-.086-.005-.006-.009-.012-.015-.014a.993.993 0 00-.082-.025 9.401 9.401 0 01-2.657-1.113c-.348-.21-.62-.479-.756-.875-.035-.1-.033-.211-.088-.303zM5.222 0h.839c.006.02.023.02.038.021.141.02.284.034.423.061a4.959 4.959 0 013.016 1.81 5.09 5.09 0 011.132 2.915 5.143 5.143 0 01-.301 2.152 5.113 5.113 0 01-1.634 2.277 4.87 4.87 0 01-2.497 1.045 4.91 4.91 0 01-3.673-1.05 5.088 5.088 0 01-1.555-2.08 5.233 5.233 0 01-.328-2.787c.08-.539.24-1.053.483-1.539A5.093 5.093 0 012.57 1.084 4.935 4.935 0 014.826.074C4.959.053 5.095.05 5.222 0zm.433 3.025c-1.1-.029-2.093.94-2.09 2.137.001 1.174.945 2.139 2.08 2.143 1.16.004 2.095-.985 2.097-2.139.004-1.168-.957-2.164-2.087-2.14z" fill="#000"/></svg><svg fill="none" viewBox="0 0 20 17" id="tl" xmlns="http://www.w3.org/2000/svg"><path d="M19.283.848a.837.837 0 00-.653-.826c-.247-.062-.47.017-.694.104-.556.214-1.113.422-1.67.636-.615.245-1.226.494-1.845.736-1.127.436-2.25.885-3.384 1.297-.354.141-.708.287-1.065.428-1.24.484-2.48.965-3.724 1.445-.832.322-1.663.64-2.494.961-.031.014-.062.031-.093.042-.91.356-1.824.709-2.735 1.071-.25.1-.484.239-.65.464-.157.218-.137.432.066.612.12.11.265.183.42.231 1.476.467 2.954.927 4.431 1.39.055-.031.114-.055.165-.09.368-.232.735-.47 1.103-.702l4.91-3.111 3.906-2.479a.973.973 0 01.433-.152c.086-.01.182 0 .223.09.045.094-.02.166-.082.228-.066.066-.138.121-.206.18-.533.488-1.066.978-1.598 1.462-.636.578-1.278 1.152-1.914 1.729-.529.48-1.054.968-1.587 1.452-.876.791-1.752 1.583-2.625 2.375-.082.076-.189.138-.213.262.117.08.23.163.347.242l2.144 1.608c.048.038.113.059.127.131.192.049.306.222.478.301a.2.2 0 00.02.028c1.299.964 2.584 1.953 3.903 2.89.667.473 1.34.356 1.59-.564l.022-.083.274-1.282.54-2.51c.01-.062.017-.125.03-.187.087-.421.17-.843.255-1.265.107-.501.21-1.002.316-1.504.155-.719.31-1.438.46-2.153l.014-.004c.21-1.006.423-2.008.632-3.014.018-.09.031-.18.052-.27.103-.484.21-.968.313-1.455v-.07c.037-.076.006-.169.065-.241-.007-.146-.007-.29-.007-.433z" fill="#BDBDBD"/></svg><svg fill="none" viewBox="0 0 20 17" id="tl_hover" xmlns="http://www.w3.org/2000/svg"><path d="M19.283.848a.837.837 0 00-.653-.826c-.247-.062-.47.017-.694.104-.556.214-1.113.422-1.67.636-.615.245-1.226.494-1.845.736-1.127.436-2.25.885-3.384 1.297-.354.141-.708.287-1.065.428-1.24.484-2.48.965-3.724 1.445-.832.322-1.663.64-2.494.961-.031.014-.062.031-.093.042-.91.356-1.824.709-2.735 1.071-.25.1-.484.239-.65.464-.157.218-.137.432.066.612.12.11.265.183.42.231 1.476.467 2.954.927 4.431 1.39.055-.031.114-.055.165-.09.368-.232.735-.47 1.103-.702l4.91-3.111 3.906-2.479a.973.973 0 01.433-.152c.086-.01.182 0 .223.09.045.094-.02.166-.082.228-.066.066-.138.121-.206.18-.533.488-1.066.978-1.598 1.462-.636.578-1.278 1.152-1.914 1.729-.529.48-1.054.968-1.587 1.452-.876.791-1.752 1.583-2.625 2.375-.082.076-.189.138-.213.262.117.08.23.163.347.242l2.144 1.608c.048.038.113.059.127.131.192.049.306.222.478.301a.2.2 0 00.02.028c1.299.964 2.584 1.953 3.903 2.89.667.473 1.34.356 1.59-.564l.022-.083.274-1.282.54-2.51c.01-.062.017-.125.03-.187.087-.421.17-.843.255-1.265.107-.501.21-1.002.316-1.504.155-.719.31-1.438.46-2.153l.014-.004c.21-1.006.423-2.008.632-3.014.018-.09.031-.18.052-.27.103-.484.21-.968.313-1.455v-.07c.037-.076.006-.169.065-.241-.007-.146-.007-.29-.007-.433z" fill="#000"/></svg><svg fill="none" viewBox="0 0 20 13" id="tw" xmlns="http://www.w3.org/2000/svg"><path d="M9.785 12.944h1.195s.361-.045.546-.272c.17-.207.165-.598.165-.598s-.023-1.827.721-2.096c.734-.265 1.676 1.766 2.676 2.548.755.591 1.329.462 1.329.462l2.67-.043s1.397-.098.735-1.349c-.054-.102-.386-.925-1.986-2.618-1.675-1.772-1.45-1.485.567-4.548 1.228-1.866 1.719-3.005 1.566-3.493-.146-.464-1.05-.342-1.05-.342l-3.007.021s-.224-.034-.388.079c-.162.11-.266.368-.266.368s-.475 1.443-1.11 2.671c-1.34 2.59-1.875 2.728-2.093 2.567-.51-.376-.383-1.507-.383-2.31 0-2.51.335-3.557-.65-3.829-.328-.089-.569-.149-1.405-.158-1.074-.015-1.98.001-2.495.287-.343.19-.606.617-.445.641.198.03.648.139.887.509.308.478.297 1.55.297 1.55s.177 2.955-.414 3.323c-.406.252-.96-.262-2.156-2.613-.61-1.204-1.071-2.535-1.071-2.535S4.13.917 3.972.784A1.157 1.157 0 003.51.572L.652.594S.223.607.066.82c-.14.19-.012.58-.012.58s2.237 5.964 4.77 8.968c2.324 2.757 4.96 2.576 4.96 2.576z" fill="#BDBDBD"/></svg><svg fill="none" viewBox="0 0 20 13" id="tw_hover" xmlns="http://www.w3.org/2000/svg"><path d="M9.785 12.944h1.195s.361-.045.546-.272c.17-.207.165-.598.165-.598s-.023-1.827.721-2.096c.734-.265 1.676 1.766 2.676 2.548.755.591 1.329.462 1.329.462l2.67-.043s1.397-.098.735-1.349c-.054-.102-.386-.925-1.986-2.618-1.675-1.772-1.45-1.485.567-4.548 1.228-1.866 1.719-3.005 1.566-3.493-.146-.464-1.05-.342-1.05-.342l-3.007.021s-.224-.034-.388.079c-.162.11-.266.368-.266.368s-.475 1.443-1.11 2.671c-1.34 2.59-1.875 2.728-2.093 2.567-.51-.376-.383-1.507-.383-2.31 0-2.51.335-3.557-.65-3.829-.328-.089-.569-.149-1.405-.158-1.074-.015-1.98.001-2.495.287-.343.19-.606.617-.445.641.198.03.648.139.887.509.308.478.297 1.55.297 1.55s.177 2.955-.414 3.323c-.406.252-.96-.262-2.156-2.613-.61-1.204-1.071-2.535-1.071-2.535S4.13.917 3.972.784A1.157 1.157 0 003.51.572L.652.594S.223.607.066.82c-.14.19-.012.58-.012.58s2.237 5.964 4.77 8.968c2.324 2.757 4.96 2.576 4.96 2.576z" fill="#000"/></svg><svg fill="none" viewBox="0 0 20 13" id="vk" xmlns="http://www.w3.org/2000/svg"><path d="M9.785 12.944h1.195s.361-.045.546-.272c.17-.207.165-.598.165-.598s-.023-1.827.721-2.096c.734-.265 1.676 1.766 2.676 2.548.755.591 1.329.462 1.329.462l2.67-.043s1.397-.098.735-1.349c-.054-.102-.386-.925-1.986-2.618-1.675-1.772-1.45-1.485.567-4.548 1.228-1.866 1.719-3.005 1.566-3.493-.146-.464-1.05-.342-1.05-.342l-3.007.021s-.224-.034-.388.079c-.162.11-.266.368-.266.368s-.475 1.443-1.11 2.671c-1.34 2.59-1.875 2.728-2.093 2.567-.51-.376-.383-1.507-.383-2.31 0-2.51.335-3.557-.65-3.829-.328-.089-.569-.149-1.405-.158-1.074-.015-1.98.001-2.495.287-.343.19-.606.617-.445.641.198.03.648.139.887.509.308.478.297 1.55.297 1.55s.177 2.955-.414 3.323c-.406.252-.96-.262-2.156-2.613-.61-1.204-1.071-2.535-1.071-2.535S4.13.917 3.972.784A1.157 1.157 0 003.51.572L.652.594S.223.607.066.82c-.14.19-.012.58-.012.58s2.237 5.964 4.77 8.968c2.324 2.757 4.96 2.576 4.96 2.576z" fill="#BDBDBD"/></svg><svg fill="none" viewBox="0 0 20 13" id="vk_hover" xmlns="http://www.w3.org/2000/svg"><path d="M9.785 12.944h1.195s.361-.045.546-.272c.17-.207.165-.598.165-.598s-.023-1.827.721-2.096c.734-.265 1.676 1.766 2.676 2.548.755.591 1.329.462 1.329.462l2.67-.043s1.397-.098.735-1.349c-.054-.102-.386-.925-1.986-2.618-1.675-1.772-1.45-1.485.567-4.548 1.228-1.866 1.719-3.005 1.566-3.493-.146-.464-1.05-.342-1.05-.342l-3.007.021s-.224-.034-.388.079c-.162.11-.266.368-.266.368s-.475 1.443-1.11 2.671c-1.34 2.59-1.875 2.728-2.093 2.567-.51-.376-.383-1.507-.383-2.31 0-2.51.335-3.557-.65-3.829-.328-.089-.569-.149-1.405-.158-1.074-.015-1.98.001-2.495.287-.343.19-.606.617-.445.641.198.03.648.139.887.509.308.478.297 1.55.297 1.55s.177 2.955-.414 3.323c-.406.252-.96-.262-2.156-2.613-.61-1.204-1.071-2.535-1.071-2.535S4.13.917 3.972.784A1.157 1.157 0 003.51.572L.652.594S.223.607.066.82c-.14.19-.012.58-.012.58s2.237 5.964 4.77 8.968c2.324 2.757 4.96 2.576 4.96 2.576z" fill="#000"/></svg></svg>