<svg xmlns="http://www.w3.org/2000/svg" fill="none" viewBox="0 0 107 30"><defs/><path fill="#AE485C" d="M31.7 0c-.4.9-.8 1.7-1.2 2.5-1.8 3.7-3.6 7.4-5.5 11-.5.9-.5 1.6 0 2.6 2.1 4.1 4.2 8.3 6.2 12.5.2.3.3.6.5 1.1H0V0h31.7zm-5.2 3.2H3.2v23.1h23.2c-.2-.5-.4-.9-.6-1.3-1.5-3-3-6.1-4.5-9.1-.4-.9-.4-1.6 0-2.5 1-1.8 1.9-3.7 2.8-5.6.8-1.3 1.6-2.9 2.4-4.6z"/><path fill="#AE485C" d="M15.2 22.6l-3.7-5.1h-.7v5.1H6.7v-16h6.4c1.8 0 3.2.4 4.3 1.3 1.1.9 1.6 2.2 1.7 4 0 2.8-1.1 4.6-3.2 5.3l4.4 5.5h-5.1v-.1zM10.8 14h2.4c.8 0 1.4-.3 1.7-.9.3-.6.3-1.2 0-1.8-.3-.6-.9-.9-1.7-.9h-2.4V14z"/><path fill="#000" d="M44.8 20.8l-2.7-3.7h-.5v3.7h-3V9.1h4.7c1.3 0 2.3.3 3.1.9.8.6 1.2 1.6 1.2 2.9 0 2.1-.8 3.4-2.3 3.8l3.2 4-3.7.1zm-3.2-6.3h1.7c.6 0 1-.2 1.2-.7.2-.4.2-.9 0-1.3s-.7-.7-1.2-.7h-1.7v2.7zM52 9.1v7.8c0 .4.1.7.3.9.2.2.5.4.8.5.3.1.7.1 1 0 .3-.1.6-.2.8-.5.2-.2.3-.5.3-.9V9.1h3v7.8c0 .6-.1 1.1-.3 1.6-.2.5-.5.9-.9 1.2-.4.3-.8.6-1.2.8-.5.2-1 .4-1.5.4h-1.5c-.5 0-1-.2-1.5-.4s-.9-.5-1.2-.8c-.4-.3-.6-.7-.9-1.2-.2-.5-.3-1-.3-1.6V9.1H52zM59.3 18.8l1.9-1.8c.2.3.5.5.8.7.3.2.7.3 1 .4.3.1.6.1.9 0 .3 0 .5-.1.7-.3.2-.2.3-.4.3-.6 0-.3-.2-.6-.6-.8-.4-.2-.9-.3-1.4-.4-1-.2-1.9-.6-2.6-1.2-.7-.6-1-1.5-1-2.5 0-1.1.4-1.9 1.2-2.6.8-.6 1.8-.9 3-.9 1.6 0 3 .6 4 1.9l-1.9 1.5c-.4-.4-.9-.7-1.4-.9-.5-.1-1-.1-1.4 0-.4.2-.6.5-.6.9 0 .5.6.9 1.6 1.1.5.1.9.2 1.2.3.4.1.7.3 1.1.5.4.2.7.4.9.7.2.3.4.6.6 1.1.1.4.2.9.2 1.5 0 .7-.3 1.4-.8 1.9-.5.6-1.1 1-1.7 1.2-.7.3-1.4.4-2.1.4-.7 0-1.4-.2-2.1-.5-.7-.3-1.2-.9-1.8-1.6zM77.6 12.6c0 .3-.1.7-.3 1-.2.4-.5.7-.9.9.7.4 1.2.8 1.4 1.5.2.6.3 1.2.2 1.8-.3 2-1.7 3-4.2 3H69V9.1h4.7c1.1 0 2.1.3 2.8 1 .7.6 1.1 1.4 1.1 2.5zm-5.6 1h1.7c.5 0 .8-.2 1-.5.2-.3.2-.7 0-1-.2-.3-.5-.5-1-.5H72v2zm0 4.6h1.7c.6 0 1-.2 1.2-.6.2-.4.2-.8 0-1.2-.2-.4-.6-.6-1.2-.6H72v2.4zM84.7 9.1l4.2 11.7h-3.2l-.7-2.4h-3.1l-.7 2.4H78l4-11.7h2.7zm-2.2 6.7h1.8l-.8-3.4h-.1l-.9 3.4zM88.8 18.8l1.9-1.8c.2.3.5.5.8.7.3.2.7.3 1 .4.3.1.6.1.9 0 .3 0 .5-.1.7-.3.2-.2.3-.4.3-.6 0-.3-.2-.6-.6-.8-.4-.2-.9-.3-1.4-.4-1-.2-1.9-.6-2.6-1.2-.7-.6-1-1.5-1-2.5 0-1.1.4-1.9 1.2-2.6.8-.6 1.8-.9 3-.9 1.6 0 3 .6 4 1.9l-1.9 1.5c-.4-.4-.9-.7-1.4-.9-.5-.1-1-.1-1.4 0-.4.2-.6.5-.6.9 0 .5.6.9 1.6 1.1.5.1.9.2 1.2.3.4.1.7.3 1.1.5.4.2.7.4.9.7.2.3.4.6.6 1.1.1.4.2.9.2 1.5 0 .7-.3 1.4-.8 1.9-.5.6-1.1 1-1.7 1.2-.7.3-1.4.4-2.1.4-.7 0-1.4-.2-2.1-.5-.7-.3-1.3-.9-1.8-1.6zM101.5 11.8v1.8h4.8v2.6h-4.8V18h5.2v2.8h-8.2V9.1h8.2v2.8l-5.2-.1z"/></svg>