<svg width="22" height="15" fill="none" xmlns="http://www.w3.org/2000/svg"><g clip-path="url(#clip0)"><path d="M1.063.014C.46.014 0 .48 0 1.086s.46 1.071 1.063 1.071h19.125c.602 0 1.062-.464 1.062-1.071S20.79.014 20.187.014H1.063zm0 6.429C.46 6.443 0 6.907 0 7.514c0 .608.46 1.072 1.063 1.072h19.125c.602 0 1.062-.464 1.062-1.072 0-.607-.46-1.071-1.063-1.071H1.063zm0 6.428C.46 12.871 0 13.336 0 13.944s.46 1.071 1.063 1.071h19.125c.602 0 1.062-.464 1.062-1.071s-.46-1.072-1.063-1.072H1.063z" fill="#fff"/></g><defs><clipPath id="clip0"><path fill="#fff" d="M0 0h21.25v15H0z"/></clipPath></defs></svg>