<svg width="24" height="24" fill="none" xmlns="http://www.w3.org/2000/svg"><circle cx="12" cy="12" r="11.5" stroke="#00FF57"/><path d="M8.592 11.952h1.136V6.848h2.928c.544 0 1.04.064 1.488.192.448.117.832.304 1.152.56.32.245.57.56.752.944.181.384.272.843.272 1.376 0 .533-.096.997-.288 1.392a2.867 2.867 0 01-.784.992 3.42 3.42 0 01-1.168.576 5.282 5.282 0 01-1.456.192h-1.616v1.616h2.576v1.056h-2.576V18h-1.28v-2.256H8.592v-1.056h1.136v-1.616H8.592v-1.12zm4.064 0c.736 0 1.312-.165 1.728-.496.427-.341.64-.853.64-1.536s-.213-1.179-.64-1.488c-.416-.31-.992-.464-1.728-.464h-1.648v3.984h1.648z" fill="#00FF57"/></svg>